<svg xmlns="http://www.w3.org/2000/svg" width="375" viewBox="0 0 375 375" height="375" version="1.0"><g fill="#FFF"><g><g><path d="M 48.90625 -15.4375 C 48.90625 -10.5625 47.128906 -6.769531 43.578125 -4.0625 C 40.023438 -1.351562 35.085938 0 28.765625 0 L 6.53125 0 L 6.53125 -54.78125 L 26.4375 -54.78125 C 39.289062 -54.78125 45.71875 -50.347656 45.71875 -41.484375 C 45.71875 -38.242188 44.8125 -35.519531 43 -33.3125 C 41.1875 -31.113281 38.617188 -29.640625 35.296875 -28.890625 C 39.648438 -28.367188 43.003906 -26.910156 45.359375 -24.515625 C 47.722656 -22.117188 48.90625 -19.09375 48.90625 -15.4375 Z M 38.25 -40.59375 C 38.25 -43.539062 37.238281 -45.648438 35.21875 -46.921875 C 33.195312 -48.191406 30.269531 -48.828125 26.4375 -48.828125 L 13.953125 -48.828125 L 13.953125 -31.5 L 26.4375 -31.5 C 30.40625 -31.5 33.363281 -32.242188 35.3125 -33.734375 C 37.269531 -35.222656 38.25 -37.507812 38.25 -40.59375 Z M 41.40625 -16.015625 C 41.40625 -22.472656 36.867188 -25.703125 27.796875 -25.703125 L 13.953125 -25.703125 L 13.953125 -5.953125 L 28.375 -5.953125 C 32.914062 -5.953125 36.222656 -6.789062 38.296875 -8.46875 C 40.367188 -10.15625 41.40625 -12.671875 41.40625 -16.015625 Z M 41.40625 -16.015625" transform="translate(37.512 215.127)"/></g></g></g><g fill="#FFF"><g><g><path d="M 7.34375 0 L 7.34375 -54.78125 L 14.78125 -54.78125 L 14.78125 0 Z M 7.34375 0" transform="translate(90.615 215.127)"/></g></g></g><g fill="#FFF"><g><g><path d="M 42.0625 0 L 12.75 -46.65625 L 12.953125 -42.890625 L 13.140625 -36.390625 L 13.140625 0 L 6.53125 0 L 6.53125 -54.78125 L 15.15625 -54.78125 L 44.796875 -7.8125 C 44.484375 -12.894531 44.328125 -16.578125 44.328125 -18.859375 L 44.328125 -54.78125 L 51.015625 -54.78125 L 51.015625 0 Z M 42.0625 0" transform="translate(112.736 215.127)"/></g></g></g><g fill="#FFF"><g><g><path d="M 4 -27.640625 C 4 -36.535156 6.382812 -43.414062 11.15625 -48.28125 C 15.925781 -53.15625 22.628906 -55.59375 31.265625 -55.59375 C 37.328125 -55.59375 42.25 -54.566406 46.03125 -52.515625 C 49.8125 -50.472656 52.726562 -47.195312 54.78125 -42.6875 L 47.703125 -40.59375 C 46.148438 -43.695312 44.003906 -45.960938 41.265625 -47.390625 C 38.535156 -48.816406 35.132812 -49.53125 31.0625 -49.53125 C 24.738281 -49.53125 19.90625 -47.617188 16.5625 -43.796875 C 13.21875 -39.972656 11.546875 -34.585938 11.546875 -27.640625 C 11.546875 -20.722656 13.320312 -15.257812 16.875 -11.25 C 20.425781 -7.25 25.335938 -5.25 31.609375 -5.25 C 35.179688 -5.25 38.515625 -5.789062 41.609375 -6.875 C 44.710938 -7.96875 47.222656 -9.445312 49.140625 -11.3125 L 49.140625 -21.1875 L 32.78125 -21.1875 L 32.78125 -27.40625 L 55.984375 -27.40625 L 55.984375 -8.515625 C 53.078125 -5.554688 49.519531 -3.265625 45.3125 -1.640625 C 41.101562 -0.0234375 36.535156 0.78125 31.609375 0.78125 C 25.878906 0.78125 20.941406 -0.359375 16.796875 -2.640625 C 12.648438 -4.921875 9.476562 -8.207031 7.28125 -12.5 C 5.09375 -16.789062 4 -21.835938 4 -27.640625 Z M 4 -27.640625" transform="translate(170.232 215.127)"/></g></g></g><g fill="#FFF"><g><g><path d="M 6.53125 0 L 6.53125 -54.78125 L 48.09375 -54.78125 L 48.09375 -48.71875 L 13.953125 -48.71875 L 13.953125 -31.140625 L 45.765625 -31.140625 L 45.765625 -25.15625 L 13.953125 -25.15625 L 13.953125 -6.0625 L 49.6875 -6.0625 L 49.6875 0 Z M 6.53125 0" transform="translate(232.16 215.127)"/></g></g></g><g fill="#2F80ED"><g><g><path d="M 4.265625 0 L 4.265625 -31.796875 L 8.578125 -31.796875 L 8.578125 0 Z M 4.265625 0" transform="translate(296.422 216.36)"/></g></g></g><g fill="#2F80ED"><g><g><path d="M 16.25 -28.28125 L 16.25 0 L 11.953125 0 L 11.953125 -28.28125 L 1.03125 -28.28125 L 1.03125 -31.796875 L 27.171875 -31.796875 L 27.171875 -28.28125 Z M 16.25 -28.28125" transform="translate(309.26 216.36)"/></g></g></g></svg>