<svg xmlns="http://www.w3.org/2000/svg" width="375" viewBox="0 0 375 375" height="375" version="1.0"><path fill="#FFF" d="M-37.5 -37.5H412.5V412.5H-37.5z"/><path fill="#FFF" d="M-37.5 -37.5H412.5V412.5H-37.5z"/><path fill="#131720" d="M-37.5 -37.5H412.5V412.5H-37.5z"/><g fill="#FFF"><g><g><path d="M 154.828125 -48.859375 C 154.828125 -33.429688 149.207031 -21.429688 137.96875 -12.859375 C 126.726562 -4.285156 111.097656 0 91.078125 0 L 20.671875 0 L 20.671875 -173.421875 L 83.6875 -173.421875 C 124.382812 -173.421875 144.734375 -159.390625 144.734375 -131.328125 C 144.734375 -121.066406 141.863281 -112.445312 136.125 -105.46875 C 130.382812 -98.5 122.257812 -93.828125 111.75 -91.453125 C 125.539062 -89.804688 136.164062 -85.1875 143.625 -77.59375 C 151.09375 -70.007812 154.828125 -60.429688 154.828125 -48.859375 Z M 121.109375 -128.5 C 121.109375 -137.851562 117.90625 -144.535156 111.5 -148.546875 C 105.101562 -152.566406 95.832031 -154.578125 83.6875 -154.578125 L 44.1875 -154.578125 L 44.1875 -99.6875 L 83.6875 -99.6875 C 96.25 -99.6875 105.625 -102.046875 111.8125 -106.765625 C 118.007812 -111.484375 121.109375 -118.726562 121.109375 -128.5 Z M 131.078125 -50.703125 C 131.078125 -71.140625 116.71875 -81.359375 88 -81.359375 L 44.1875 -81.359375 L 44.1875 -18.828125 L 89.84375 -18.828125 C 104.207031 -18.828125 114.671875 -21.492188 121.234375 -26.828125 C 127.796875 -32.160156 131.078125 -40.117188 131.078125 -50.703125 Z M 131.078125 -50.703125" transform="translate(39.314 275.882)"/></g></g></g><g fill="#2F80ED"><g><g><path d="M 13.5 0 L 13.5 -100.671875 L 27.15625 -100.671875 L 27.15625 0 Z M 13.5 0" transform="translate(207.453 277.603)"/></g></g></g><g fill="#2F80ED"><g><g><path d="M 51.4375 -89.53125 L 51.4375 0 L 37.875 0 L 37.875 -89.53125 L 3.28125 -89.53125 L 3.28125 -100.671875 L 86.03125 -100.671875 L 86.03125 -89.53125 Z M 51.4375 -89.53125" transform="translate(248.098 277.603)"/></g></g></g></svg>